<svg width="180" height="50" viewBox="0 0 180 50" fill="none" xmlns="http://www.w3.org/2000/svg">
<path d="M23.7349 2.598V49.2979H14.1447V2.598H23.7349ZM38.1041 2.598V10.1354H0V2.598H38.1041Z" fill="white"/>
<path d="M56.8674 41.4718V26.0121C56.8674 24.9002 56.6857 23.9487 56.3222 23.1575C55.9587 22.345 55.392 21.7142 54.6222 21.2651C53.8738 20.8161 52.9009 20.5916 51.7035 20.5916C50.6771 20.5916 49.7897 20.7733 49.0413 21.1368C48.2929 21.479 47.7156 21.9815 47.3093 22.6443C46.9031 23.2858 46.6999 24.0449 46.6999 24.9216H37.4626C37.4626 23.4462 37.8047 22.0456 38.489 20.7199C39.1732 19.3942 40.1675 18.2288 41.4718 17.2238C42.7762 16.1974 44.3264 15.3956 46.1226 14.8182C47.9401 14.2409 49.9715 13.9522 52.2167 13.9522C54.9109 13.9522 57.3058 14.4013 59.4013 15.2994C61.4968 16.1974 63.1433 17.5445 64.3407 19.3407C65.5595 21.1368 66.1689 23.382 66.1689 26.0763V40.9266C66.1689 42.8297 66.2865 44.3906 66.5217 45.6094C66.757 46.8068 67.0991 47.8546 67.5481 48.7527V49.2979H58.2145C57.7655 48.3571 57.4234 47.181 57.1882 45.7698C56.9743 44.3371 56.8674 42.9045 56.8674 41.4718ZM58.0862 28.1611L58.1504 33.3892H52.9865C51.7676 33.3892 50.7092 33.5282 49.8111 33.8061C48.913 34.0841 48.1753 34.4797 47.598 34.9929C47.0207 35.4847 46.593 36.062 46.315 36.7249C46.0584 37.3877 45.9301 38.1148 45.9301 38.9059C45.9301 39.6971 46.1119 40.4134 46.4754 41.0549C46.8389 41.675 47.3628 42.1668 48.047 42.5303C48.7313 42.8724 49.5331 43.0435 50.4526 43.0435C51.8425 43.0435 53.0506 42.7655 54.077 42.2095C55.1033 41.6536 55.8945 40.9693 56.4505 40.1568C57.0278 39.3443 57.3272 38.5745 57.3485 37.8475L59.7862 41.7605C59.444 42.6372 58.9736 43.546 58.3749 44.4868C57.7976 45.4277 57.0599 46.315 56.1618 47.149C55.2637 47.9615 54.1839 48.6351 52.9223 49.1696C51.6607 49.6828 50.1639 49.9394 48.4319 49.9394C46.2295 49.9394 44.2302 49.5011 42.4341 48.6244C40.6593 47.7263 39.248 46.4968 38.2003 44.9359C37.1739 43.3535 36.6607 41.5574 36.6607 39.5474C36.6607 37.7299 37.0028 36.1155 37.6871 34.7042C38.3713 33.2929 39.3763 32.1062 40.7021 31.144C42.0492 30.1604 43.7277 29.4227 45.7377 28.9309C47.7477 28.4177 50.0784 28.1611 52.7299 28.1611H58.0862Z" fill="white"/>
<path d="M92.0527 39.7078C92.0527 39.0449 91.8603 38.4462 91.4754 37.9116C91.0905 37.377 90.3742 36.8852 89.3264 36.4362C88.3001 35.9658 86.814 35.5381 84.8681 35.1532C83.1148 34.7684 81.479 34.2872 79.9608 33.7099C78.464 33.1112 77.1597 32.3949 76.0478 31.5609C74.9572 30.727 74.1019 29.7434 73.4818 28.6101C72.8617 27.4555 72.5517 26.1404 72.5517 24.665C72.5517 23.211 72.8617 21.8425 73.4818 20.5595C74.1233 19.2766 75.0321 18.1433 76.2081 17.1597C77.4056 16.1547 78.8596 15.3742 80.5702 14.8182C82.3022 14.2409 84.248 13.9522 86.4077 13.9522C89.4227 13.9522 92.01 14.4334 94.1696 15.3956C96.3507 16.3578 98.0185 17.6835 99.1732 19.3728C100.349 21.0406 100.937 22.9437 100.937 25.082H91.6999C91.6999 24.1839 91.5075 23.382 91.1226 22.6764C90.7591 21.9494 90.1818 21.3828 89.3906 20.9765C88.6208 20.5488 87.6158 20.335 86.3756 20.335C85.3493 20.335 84.4619 20.5168 83.7135 20.8803C82.9651 21.2224 82.3877 21.6928 81.9815 22.2915C81.5966 22.8689 81.4041 23.5103 81.4041 24.216C81.4041 24.7505 81.511 25.2316 81.7249 25.6593C81.9601 26.0656 82.3343 26.4398 82.8475 26.7819C83.3607 27.124 84.0235 27.4448 84.8361 27.7441C85.67 28.0221 86.6964 28.2787 87.9152 28.5139C90.417 29.0271 92.6515 29.7006 94.6187 30.5346C96.5859 31.3471 98.1468 32.459 99.3015 33.8703C100.456 35.2602 101.034 37.0884 101.034 39.355C101.034 40.8945 100.691 42.3058 100.007 43.5887C99.3229 44.8717 98.3393 45.9943 97.0563 46.9565C95.7733 47.8974 94.2338 48.6351 92.4376 49.1696C90.6629 49.6828 88.6636 49.9394 86.4398 49.9394C83.211 49.9394 80.474 49.3621 78.2288 48.2074C76.005 47.0527 74.3158 45.588 73.1611 43.8133C72.0278 42.0171 71.4612 40.1782 71.4612 38.2965H80.2174C80.2602 39.5581 80.5809 40.5738 81.1796 41.3435C81.7997 42.1133 82.5802 42.6693 83.521 43.0114C84.4832 43.3535 85.5203 43.5246 86.6322 43.5246C87.8297 43.5246 88.8239 43.3642 89.6151 43.0435C90.4063 42.7014 91.005 42.2523 91.4113 41.6964C91.8389 41.119 92.0527 40.4562 92.0527 39.7078Z" fill="white"/>
<path d="M116.269 0V49.2979H107.031V0H116.269ZM138.143 14.5937L123.068 31.7855L114.986 39.9644L111.618 33.2929L118.033 25.1461L127.046 14.5937H138.143ZM128.553 49.2979L118.289 33.2609L124.672 27.68L139.202 49.2979H128.553Z" fill="white"/>
<path d="M150.62 2.598L159.408 18.8917L168.197 2.598H179.198L165.631 25.7555L179.551 49.2979H168.453L159.408 32.6835L150.364 49.2979H139.202L153.154 25.7555L139.555 2.598H150.62Z" fill="white"/>
<path d="M150.563 2.598L159.505 18.8917L168.447 2.598H179.641L165.836 25.7555L180 49.2979H168.708L159.505 32.6835L150.302 49.2979H138.945L153.141 25.7555L139.304 2.598H150.563Z" fill="url(#paint0_linear_7_7)"/>
<defs>
<linearGradient id="paint0_linear_7_7" x1="159.473" y1="2.598" x2="159.473" y2="49.2979" gradientUnits="userSpaceOnUse">
<stop stop-color="#05FF00"/>
<stop offset="1" stop-color="#00FF66"/>
</linearGradient>
</defs>
</svg>
