<svg width="12" height="3" viewBox="0 0 12 3" fill="none" xmlns="http://www.w3.org/2000/svg">
<path d="M6 0C5.73629 0 5.47851 0.0781987 5.25924 0.224707C5.03998 0.371216 4.86908 0.579454 4.76816 0.823089C4.66724 1.06672 4.64084 1.33481 4.69229 1.59345C4.74373 1.8521 4.87072 2.08967 5.05719 2.27614C5.24366 2.46261 5.48124 2.5896 5.73988 2.64105C5.99852 2.69249 6.26661 2.66609 6.51025 2.56517C6.75388 2.46426 6.96212 2.29336 7.10863 2.07409C7.25514 1.85483 7.33333 1.59704 7.33333 1.33333C7.33333 0.979711 7.19286 0.640573 6.94281 0.390525C6.69276 0.140476 6.35362 0 6 0ZM1.33333 0C1.06963 0 0.811839 0.0781987 0.592574 0.224707C0.373308 0.371216 0.202411 0.579454 0.101495 0.823089C0.000577708 1.06672 -0.0258267 1.33481 0.0256202 1.59345C0.0770672 1.8521 0.204055 2.08967 0.390525 2.27614C0.576995 2.46261 0.814572 2.5896 1.07321 2.64105C1.33185 2.69249 1.59994 2.66609 1.84358 2.56517C2.08721 2.46426 2.29545 2.29336 2.44196 2.07409C2.58847 1.85483 2.66667 1.59704 2.66667 1.33333C2.66667 0.979711 2.52619 0.640573 2.27614 0.390525C2.02609 0.140476 1.68696 0 1.33333 0ZM10.6667 0C10.403 0 10.1452 0.0781987 9.92591 0.224707C9.70664 0.371216 9.53574 0.579454 9.43483 0.823089C9.33391 1.06672 9.30751 1.33481 9.35895 1.59345C9.4104 1.8521 9.53739 2.08967 9.72386 2.27614C9.91033 2.46261 10.1479 2.5896 10.4065 2.64105C10.6652 2.69249 10.9333 2.66609 11.1769 2.56517C11.4205 2.46426 11.6288 2.29336 11.7753 2.07409C11.9218 1.85483 12 1.59704 12 1.33333C12 0.979711 11.8595 0.640573 11.6095 0.390525C11.3594 0.140476 11.0203 0 10.6667 0Z" fill="#00FF66"/>
</svg>
