<svg width="16" height="16" viewBox="0 0 16 16" fill="none" xmlns="http://www.w3.org/2000/svg">
<path d="M15.5593 2.31752L13.6815 0.439392C13.0955 -0.146545 12.1443 -0.146545 11.5587 0.439392L9.79367 2.20658L13.7655 6.20658L15.533 4.43939C16.1468 3.85314 16.1468 2.90345 15.5593 2.31752ZM0.969924 11.0031C0.900111 11.073 0.852549 11.1618 0.833143 11.2586L0.0100177 15.3743C-0.0532948 15.6906 0.192299 16 0.498361 16C0.531143 16 0.564518 15.9968 0.59833 15.99L4.71395 15.1669C4.81077 15.1475 4.89961 15.1 4.96945 15.0302L13.0851 6.9146L9.08508 2.9146L0.969924 11.0031ZM4.1218 13.7563L1.77367 14.226L2.24336 11.8775L2.99992 11.1219V13H4.87867L4.1218 13.7563Z" fill="#2D2D2D"/>
</svg>
