<svg width="17" height="18" viewBox="0 0 17 18" fill="none" xmlns="http://www.w3.org/2000/svg">
<path d="M15.2692 2.46154H11.5769V1.84615C11.5769 0.828308 10.7486 0 9.73077 0H7.26923C6.25138 0 5.42308 0.828308 5.42308 1.84615V2.46154H1.73077C1.052 2.46154 0.5 3.01354 0.5 3.69231V4.30769C0.5 4.64738 0.775692 4.92308 1.11538 4.92308H15.8846C16.2243 4.92308 16.5 4.64738 16.5 4.30769V3.69231C16.5 3.01354 15.948 2.46154 15.2692 2.46154ZM6.65385 1.84615C6.65385 1.50708 6.93015 1.23077 7.26923 1.23077H9.73077C10.0698 1.23077 10.3462 1.50708 10.3462 1.84615V2.46154H6.65385V1.84615Z" fill="#2D2D2D"/>
<path d="M2.34615 6.15385V15.3846C2.34615 16.4025 3.17446 17.2308 4.19231 17.2308H12.8077C13.8255 17.2308 14.6538 16.4025 14.6538 15.3846V6.15385H2.34615ZM10.7812 12.488C11.0218 12.7286 11.0218 13.1175 10.7812 13.3582C10.5406 13.5988 10.1517 13.5988 9.91108 13.3582L8.5 11.9471L7.08892 13.3582C6.84831 13.5988 6.45938 13.5988 6.21877 13.3582C5.97815 13.1175 5.97815 12.7286 6.21877 12.488L7.62985 11.0769L6.21877 9.66585C5.97815 9.42523 5.97815 9.03631 6.21877 8.79569C6.45938 8.55508 6.84831 8.55508 7.08892 8.79569L8.5 10.2068L9.91108 8.79569C10.1517 8.55508 10.5406 8.55508 10.7812 8.79569C11.0218 9.03631 11.0218 9.42523 10.7812 9.66585L9.37015 11.0769L10.7812 12.488Z" fill="#2D2D2D"/>
</svg>
